<svg xmlns="http://www.w3.org/2000/svg" viewBox="0 0 34.002 34"><defs><style>.cls-1{isolation:isolate;}.cls-2{fill:#f0b84a;fill-rule:evenodd;}</style></defs><title>icon_rocket</title><g class="cls-1"><g><path class="cls-2" d="M18,13a39.9724,39.9724,0,0,0-5,10l7,7s7.0545-2.3775,9-8S31,8,31,8,21.877,7.068,18,13Z" transform="translate(-2.455 -1.7051)"/></g></g><g><path d="M2.98,35.6465a.652.652,0,0,1-.2739-.19.7352.7352,0,0,1-.2325-.4073.8627.8627,0,0,1,.0332-.4726,45.837,45.837,0,0,1,1.9839-4.7315A21.3605,21.3605,0,0,1,6.5244,26.458a8.6246,8.6246,0,0,1,2.0669-2.042,3.7679,3.7679,0,0,1,2.0835-.6806,3.2541,3.2541,0,0,1,1.3447.29,4.23,4.23,0,0,1,1.2451.8887,3.4947,3.4947,0,0,1,1.0792,1.8007,3.9654,3.9654,0,0,1,.0166,1.4864,4.6191,4.6191,0,0,1-.9961,1.9092,10.5067,10.5067,0,0,1-2.1333,1.8837,23.6385,23.6385,0,0,1-3.2622,1.8516q-1.9095.9126-4.3663,1.81a.6287.6287,0,0,1-.1494.042,1.39,1.39,0,0,1-.1494.0078A.9227.9227,0,0,1,2.98,35.6465Zm29.41-33.8a30.4011,30.4011,0,0,0-3.0214.4233,28.467,28.467,0,0,0-2.8311.6973,23.275,23.275,0,0,0-2.6142.9629q-1.03.465-1.9922,1.0127a21.0083,21.0083,0,0,0-1.8428,1.1787,18.0535,18.0535,0,0,0-1.6768,1.3613Q17.6143,8.2133,16.9,9.01q-.266.2988-.5064.6059t-.4731.606a7.8025,7.8025,0,0,0-2.2163.5146,10.4139,10.4139,0,0,0-2.2495,1.2285A15.4724,15.4724,0,0,0,9.5625,13.55,24.529,24.529,0,0,0,7.67,15.6338q-.7808.9631-1.4028,1.8926t-1.0708,1.66q-.4482.731-.689,1.1953T4.25,20.88a.7928.7928,0,0,0-.0747.581.8076.8076,0,0,0,.34.4815.6577.6577,0,0,0,.2324.124.8656.8656,0,0,0,.2657.042.901.901,0,0,0,.3071-.0576.809.809,0,0,0,.29-.1914,14.5051,14.5051,0,0,1,2.208-1.5938q.4146-.2328.9629-.49a11.68,11.68,0,0,1,1.1787-.4727,11.1487,11.1487,0,0,1,2.8887-.5644,5.5275,5.5275,0,0,0,.5645,1.0625q.3646.5478.7719,1.0547.4065.5054.8052.9375t.6807.7138q.282.2652.7055.6641t.93.8135a11.2,11.2,0,0,0,1.0625.7715,7.0015,7.0015,0,0,0,1.0708.5732,9.9839,9.9839,0,0,1-.208,1.5186,12.6351,12.6351,0,0,1-.373,1.3613,11.9906,11.9906,0,0,1-.4649,1.18q-.249.5389-.498.9707a10.333,10.333,0,0,1-1.0791,1.61q-.498.5815-.5147.5977a.8082.8082,0,0,0-.2407.5224.8613.8613,0,0,0,.1577.5733.7848.7848,0,0,0,.2989.2568.8349.8349,0,0,0,.3818.0918.7732.7732,0,0,0,.1992-.0254,1.2438,1.2438,0,0,0,.1826-.0576c.0332-.0225.2017-.1133.5064-.2744s.7026-.3867,1.1953-.68,1.0454-.65,1.6606-1.0713q.92-.6314,1.9-1.4111a22.9544,22.9544,0,0,0,2.0664-1.8848,17.1512,17.1512,0,0,0,1.6026-1.9,11.1961,11.1961,0,0,0,1.22-2.2412,7.1621,7.1621,0,0,0,.5068-2.2246q.2988-.2152.6065-.4648.3062-.249.6054-.5147a18.6989,18.6989,0,0,0,1.5352-1.5107,19.7008,19.7008,0,0,0,1.3613-1.6768A20.1394,20.1394,0,0,0,33.2363,16.24a19.21,19.21,0,0,0,.9961-2,24.3682,24.3682,0,0,0,.9707-2.6065A24.4511,24.4511,0,0,0,35.9,8.8022q.2754-1.4691.416-3.03t.1406-3.2041V1.7051H35.61Q33.9507,1.7051,32.39,1.8462ZM9.3218,25.9766A7.9771,7.9771,0,0,0,7.8193,27.57q-.3822.5142-.7636,1.1367-.3824.624-.7637,1.3535-.3824.7311-.7554,1.5606t-.7554,1.7764Q5.628,33.0488,6.4,32.7t1.4526-.6885q.6806-.3412,1.27-.6894T10.21,30.625a7.7436,7.7436,0,0,0,1.8759-1.6436A3.558,3.558,0,0,0,12.7,27.8359a1.5078,1.5078,0,0,0-.0581-.8711,2.4574,2.4574,0,0,0-.5894-.8554,2.6225,2.6225,0,0,0-.6889-.5147,1.5631,1.5631,0,0,0-.689-.166A2.2867,2.2867,0,0,0,9.3218,25.9766ZM9.106,16.5635a19.2556,19.2556,0,0,1,1.6352-1.8013,14.7306,14.7306,0,0,1,1.8594-1.5356,7.95,7.95,0,0,1,2.0254-1.0293q-.4153.7309-.73,1.4194T13.3477,14.92a11.3948,11.3948,0,0,0-.3736,1.1538q-.1413.54-.2241.9546a12.2971,12.2971,0,0,0-2.7393.4815,15.0114,15.0114,0,0,0-2.2744.88Q8.35,17.51,9.106,16.5635ZM25.4082,21.9a19.2994,19.2994,0,0,1-2.3652,1.1621,12.21,12.21,0,0,1-1.8008.59,6.035,6.035,0,0,1-.9385.1661,4.9112,4.9112,0,0,1-1.2949-.6807,12.0511,12.0511,0,0,1-1.0376-.8135q-.5566-.482-1.104-1.0293t-1.021-1.0957a13.1436,13.1436,0,0,1-.8218-1.0459,4.23,4.23,0,0,1-.664-1.2949,6.0715,6.0715,0,0,1,.1577-.93,11.9386,11.9386,0,0,1,.581-1.8013,18.2121,18.2121,0,0,1,1.17-2.3657,16.6685,16.6685,0,0,1,1.9092-2.623A17.6589,17.6589,0,0,1,21.35,7.3247a19.7757,19.7757,0,0,1,3.8438-2.0669,24.009,24.009,0,0,1,4.4824-1.3115,30.6837,30.6837,0,0,1,5.0713-.5313,30.6419,30.6419,0,0,1-.5313,5.0718,24.19,24.19,0,0,1-1.3115,4.4907,19.752,19.752,0,0,1-2.0664,3.8516A17.535,17.535,0,0,1,28.04,19.9834,15.5277,15.5277,0,0,1,25.4082,21.9Zm-4.748,6.251a11.3639,11.3639,0,0,0,.4736-2.7227q.4146-.0835.9541-.2324t1.1621-.3818q.624-.2329,1.3037-.5479t1.4111-.73a8.0748,8.0748,0,0,1-1.0214,2.0254,14.0934,14.0934,0,0,1-1.5274,1.8594,19.1993,19.1993,0,0,1-1.8008,1.6357q-.9462.7545-1.8261,1.3692A16.9213,16.9213,0,0,0,20.66,28.1514ZM23.748,16.68a4.1836,4.1836,0,0,1-1.3437-.9131,4.4825,4.4825,0,0,1-.9141-1.353,4.1849,4.1849,0,0,1,0-3.3037,4.488,4.488,0,0,1,.9141-1.3531,4.1977,4.1977,0,0,1,1.3437-.913A4.1438,4.1438,0,0,1,25.4,8.5117a4.2271,4.2271,0,0,1,3.0137,1.2451,4.39,4.39,0,0,1,.9043,1.3531,4.2754,4.2754,0,0,1,0,3.3037,4.385,4.385,0,0,1-.9043,1.353,4.2725,4.2725,0,0,1-4.6661.9131Zm-.1406-5.7276a2.5654,2.5654,0,0,0,0,3.6192,2.5483,2.5483,0,0,0,4.35-1.81,2.5474,2.5474,0,0,0-4.35-1.81Z" transform="translate(-2.455 -1.7051)"/></g></svg>