<svg xmlns="http://www.w3.org/2000/svg" viewBox="0 0 38 32.292"><defs><style>.cls-1{isolation:isolate;}.cls-2{fill:#f0b84a;}</style></defs><title>icon_reload</title><g class="cls-1"><g><circle class="cls-2" cx="21.043" cy="18.792" r="13.5"/></g></g><g><path d="M32.501,23.7305a.875.875,0,0,1,.4736.5468.924.924,0,0,1-.0654.7334,15.4365,15.4365,0,0,1-2.4307,3.377A15.1348,15.1348,0,0,1,27.3057,30.94a15.3739,15.3739,0,0,1-3.7393,1.6132,15.187,15.187,0,0,1-7.0967.27A15.1851,15.1851,0,0,1,8.7139,28.666a16.4178,16.4178,0,0,1-1.8555-2.2539,14.989,14.989,0,0,1-1.3823-2.5059A14.58,14.58,0,0,1,4.604,21.18a15.509,15.509,0,0,1-.3433-2.8858L2.0713,20.4834a.9112.9112,0,0,1-.668.2783.911.911,0,0,1-.6679-.2783.94.94,0,0,1,0-1.3359l3.8037-3.8037a.94.94,0,0,1,1.3359,0l3.8037,3.8037a.9407.9407,0,0,1,0,1.3359.751.751,0,0,1-.3061.2139,1.0488,1.0488,0,0,1-.7237,0,.7438.7438,0,0,1-.3061-.2139L6.1719,18.3125a12.8235,12.8235,0,0,0,1.15,5.0283,13.3414,13.3414,0,0,0,7.0415,6.8565A12.9124,12.9124,0,0,0,19.457,31.208a13.2334,13.2334,0,0,0,3.6-.4912,13.48,13.48,0,0,0,3.2754-1.41A13.0235,13.0235,0,0,0,29.1055,27.07a13.6615,13.6615,0,0,0,2.1152-2.95.942.942,0,0,1,1.28-.39Zm5.6777-8.3867a.9407.9407,0,0,1,0,1.3359L34.375,20.4834a.746.746,0,0,1-.3066.2139,1.046,1.046,0,0,1-.7227,0,.7389.7389,0,0,1-.3066-.2139L29.2354,16.68a.9446.9446,0,1,1,1.3359-1.3359l2.1709,2.1708a12.8237,12.8237,0,0,0-1.15-5.0375,13.6361,13.6361,0,0,0-2.8672-4.1006,13.2289,13.2289,0,0,0-4.1738-2.7554,13.0162,13.0162,0,0,0-5.0938-1.002A13.2634,13.2634,0,0,0,12.5918,6.521,13.4409,13.4409,0,0,0,9.8179,8.7476,13.0877,13.0877,0,0,0,7.6934,11.707a.9419.9419,0,0,1-1.28.39A.933.933,0,0,1,5.94,11.54a.8978.8978,0,0,1,.065-.7236A15.4437,15.4437,0,0,1,8.4355,7.44a15.0781,15.0781,0,0,1,3.1729-2.5513,15.3689,15.3689,0,0,1,3.7388-1.6143,15.1941,15.1941,0,0,1,7.0971-.269,15.2471,15.2471,0,0,1,5.4366,2.2544A15.1292,15.1292,0,0,1,30.2,7.1611,15.6254,15.6254,0,0,1,32.0557,9.397a14.8906,14.8906,0,0,1,2.2548,5.2417,15.4918,15.4918,0,0,1,.3428,2.8759l2.1895-2.1708a.94.94,0,0,1,1.3359,0ZM20.4033,23.6191a.9109.9109,0,0,0,.668-.2783.9323.9323,0,0,0,.2783-.6865v-9.5a.95.95,0,0,0-.9463-.9463H18.5107a.95.95,0,0,0-.9462.9463.9319.9319,0,0,0,.2783.6865.9106.9106,0,0,0,.6679.2783h.9463v8.5352a.932.932,0,0,0,.2784.6865A.9106.9106,0,0,0,20.4033,23.6191Z" transform="translate(-0.457 -2.708)"/></g></svg>