<svg xmlns="http://www.w3.org/2000/svg" viewBox="0 0 32.543 37.2951"><defs><style>.cls-1{isolation:isolate;}.cls-2{fill:#f0b84a;fill-rule:evenodd;}</style></defs><title>icon_protect</title><g class="cls-1"><g><path class="cls-2" d="M28,10a18.96,18.96,0,0,1-8-4s.1034-.847-3,2-9,3-9,3A73.0619,73.0619,0,0,0,9,25c1.2656,6.7515,12,13,12,13s3.84-2.0564,8-8,6-19,6-19S33.07,11.2269,28,10Z" transform="translate(-2.457 -0.7051)"/></g></g><g><path d="M18.4775,34.6973a1.2731,1.2731,0,0,1-.1328-.0254,11.5531,11.5531,0,0,1-2.4736-1.2207,20.8921,20.8921,0,0,1-2.5982-1.9668,28.1217,28.1217,0,0,1-2.5649-2.5821A31.7981,31.7981,0,0,1,8.334,25.84q-.9961-1.4779-2.042-3.4277a31.4216,31.4216,0,0,1-1.9009-4.3667,35.599,35.599,0,0,1-1.3945-5.2627,32.8373,32.8373,0,0,1-.54-6.1177.85.85,0,0,1,.8467-.8466,16.7923,16.7923,0,0,0,3.9844-.54,39.8823,39.8823,0,0,0,4.2832-1.3115q2.0917-.7721,3.8516-1.627A23.9759,23.9759,0,0,0,18.1289.8545a.8239.8239,0,0,1,.9463,0A23.7635,23.7635,0,0,0,21.7891,2.34q1.77.8555,3.86,1.627a40.1437,40.1437,0,0,0,4.2744,1.3115,16.7,16.7,0,0,0,3.9766.54.835.835,0,0,1,.6142.249.8147.8147,0,0,1,.2491.5976,32.3651,32.3651,0,0,1-.5479,6.1177,37.1051,37.1051,0,0,1-1.3945,5.2627,30.8055,30.8055,0,0,1-1.8926,4.3667A37.284,37.284,0,0,1,28.87,25.84a30.1163,30.1163,0,0,1-2.3574,3.0625,28.1251,28.1251,0,0,1-2.5654,2.5821A20.8516,20.8516,0,0,1,21.35,33.4512a11.5531,11.5531,0,0,1-2.4736,1.2207,1.325,1.325,0,0,1-.1328.0254,1.241,1.241,0,0,1-.1328.0078A1.2263,1.2263,0,0,1,18.4775,34.6973ZM4.7729,13.0151A34.3973,34.3973,0,0,0,6.1094,17.78,30.8037,30.8037,0,0,0,7.8608,21.748a32.3291,32.3291,0,0,0,1.8843,3.129,28.6479,28.6479,0,0,0,2.3325,3.0048,28.1348,28.1348,0,0,0,2.3658,2.3662,18.3776,18.3776,0,0,0,2.2329,1.7012A11.1592,11.1592,0,0,0,18.61,32.9619a11.2189,11.2189,0,0,0,1.9345-1.0127,18.4527,18.4527,0,0,0,2.2324-1.7012,28.1177,28.1177,0,0,0,2.3653-2.3662A27.1361,27.1361,0,0,0,27.459,24.877a33.3822,33.3822,0,0,0,1.8926-3.129,30.1393,30.1393,0,0,0,1.76-3.9682A33.7454,33.7454,0,0,0,32.44,13.0151a31.9211,31.9211,0,0,0,.6142-5.5366,19.0555,19.0555,0,0,1-2.125-.2573q-1.08-.1905-2.1162-.4649-1.0386-.2739-2.01-.5893T25.002,5.5527q-.8966-.3486-1.793-.7221t-1.7266-.7554q-.8305-.3816-1.56-.7637T18.61,2.5645q-.5815.3654-1.32.747T15.73,4.0752q-.8219.3823-1.7183.7554t-1.81.7221q-.8136.2989-1.7846.6143T8.4,6.7563q-1.0459.274-2.1167.4649a18.75,18.75,0,0,1-2.1167.2573A30.3477,30.3477,0,0,0,4.7729,13.0151Zm11.82,8.8814a.7861.7861,0,0,1-.2906-.19l-3.4033-3.3868a.8569.8569,0,0,1,1.2119-1.2119L16.9,19.9131l7.9023-7.9024a.8618.8618,0,0,1,1.2119,0,.8416.8416,0,0,1,0,1.1954l-8.5,8.5a.793.793,0,0,1-.2905.19.9264.9264,0,0,1-.3237.0586A.8794.8794,0,0,1,16.5933,21.8965Z" transform="translate(-2.457 -0.7051)"/></g></svg>