<svg xmlns="http://www.w3.org/2000/svg" viewBox="0 0 34 34.2949"><defs><style>.cls-1{isolation:isolate;}.cls-2{fill:#f0b84a;}</style></defs><title>icon_support</title><g class="cls-1"><g><circle class="cls-2" cx="18.543" cy="20.2949" r="14"/></g></g><g><path d="M31.4766,6.6855a16.8912,16.8912,0,0,1,2.1328,2.5982,17.2772,17.2772,0,0,1,1.56,2.9136,16.2908,16.2908,0,0,1,.9629,3.1709,17.38,17.38,0,0,1,0,6.6826,16.3339,16.3339,0,0,1-.9629,3.1621,17.5477,17.5477,0,0,1-1.56,2.9219,16.05,16.05,0,0,1-2.1328,2.59,16.4734,16.4734,0,0,1-2.59,2.1416,16.774,16.774,0,0,1-6.084,2.5147,17.4231,17.4231,0,0,1-6.6909,0,16.7715,16.7715,0,0,1-6.0845-2.5147,16.4772,16.4772,0,0,1-2.59-2.1416,16.0793,16.0793,0,0,1-2.1333-2.59,17.6069,17.6069,0,0,1-1.56-2.9219,16.4388,16.4388,0,0,1-.9629-3.1621,17.4013,17.4013,0,0,1,0-6.6826,16.3948,16.3948,0,0,1,.9629-3.1709,17.3348,17.3348,0,0,1,1.56-2.9136A17.0255,17.0255,0,0,1,12.9492,3a17.2959,17.2959,0,0,1,3.1626-.9629,17.0215,17.0215,0,0,1,6.6909,0A17.31,17.31,0,0,1,25.9648,3a16.9734,16.9734,0,0,1,5.5118,3.6855ZM4.15,18.7051c0,.2881.0083.5752.0249.8633s.0415.57.0747.8466H9.3965q-.0666-.4144-.1-.8388c-.0225-.2813-.0332-.5723-.0332-.8711q0-.4314.0332-.855t.1-.8384H4.25q-.05.4153-.0747.8384T4.15,18.7051ZM16.0537,3.7969a14.7442,14.7442,0,0,0-4.0259,1.5439,15.602,15.602,0,0,0-3.3867,2.565,15.4082,15.4082,0,0,0-4.1089,7.4126H9.8447a9.8159,9.8159,0,0,1,.9961-2.0586,10.3207,10.3207,0,0,1,3.1709-3.1709,9.983,9.983,0,0,1,2.042-.9961ZM4.5322,22.1084a15.4068,15.4068,0,0,0,4.1089,7.4131,15.6,15.6,0,0,0,3.3867,2.5644,14.7445,14.7445,0,0,0,4.0259,1.544V28.334a10.9506,10.9506,0,0,1-2.042-1.0039,10.0612,10.0612,0,0,1-1.76-1.4033,10.3566,10.3566,0,0,1-1.4112-1.76,9.804,9.804,0,0,1-.9961-2.0586ZM19.457,27.2051a8.278,8.278,0,0,0,3.3037-.6641,8.5518,8.5518,0,0,0,2.6983-1.8183,8.6709,8.6709,0,0,0,1.8262-2.7051,8.46,8.46,0,0,0,0-6.6079,8.5861,8.5861,0,0,0-4.5245-4.5323,8.4534,8.4534,0,0,0-6.6074,0A8.5878,8.5878,0,0,0,11.6294,15.41a8.4534,8.4534,0,0,0,0,6.6079,8.6336,8.6336,0,0,0,1.8262,2.7051,8.5435,8.5435,0,0,0,2.6977,1.8183A8.2766,8.2766,0,0,0,19.457,27.2051ZM21.15,3.5146c-.2764-.0332-.5566-.0581-.8379-.0747-.2832-.0166-.5674-.0249-.8555-.0249s-.5727.0083-.8549.0249-.5621.0415-.8384.0747V8.6611a7.2176,7.2176,0,0,1,.8384-.1162q.4233-.033.8549-.0332c.2881,0,.5723.0112.8555.0332a7.2421,7.2421,0,0,1,.8379.1162ZM17.7637,33.9121c.2763.0332.5561.0586.8384.0742.2822.0176.5668.0254.8549.0254s.5723-.0078.8555-.0254c.2813-.0156.5615-.041.8379-.0742V28.7656c-.2764.044-.5566.08-.8379.1074a8.7277,8.7277,0,0,1-1.71,0q-.4234-.0409-.8384-.1074ZM34.3818,15.3184a15.4,15.4,0,0,0-4.1084-7.4126,15.6213,15.6213,0,0,0-3.3867-2.565A14.7579,14.7579,0,0,0,22.86,3.7969V9.0928a9.9822,9.9822,0,0,1,2.0419.9961A10.3178,10.3178,0,0,1,28.0732,13.26a9.8555,9.8555,0,0,1,.9961,2.0586ZM22.86,33.63a14.7582,14.7582,0,0,0,4.0263-1.544,15.6188,15.6188,0,0,0,3.3867-2.5644,15.3984,15.3984,0,0,0,4.1084-7.4131H29.0693a9.8435,9.8435,0,0,1-.9961,2.0586,10.3512,10.3512,0,0,1-1.4111,1.76,10.08,10.08,0,0,1-1.76,1.4033A10.95,10.95,0,0,1,22.86,28.334Zm6.6572-16.6182q.0658.4153.1.8384t.0332.855c0,.2988-.0108.59-.0332.8711q-.0338.4248-.1.8388h5.1465c.0332-.2763.0586-.5586.0742-.8466.0176-.2881.0254-.5752.0254-.8633s-.0078-.5728-.0254-.855c-.0156-.2822-.041-.5615-.0742-.8384Z" transform="translate(-2.457 -1.7051)"/></g></svg>