<svg xmlns="http://www.w3.org/2000/svg" viewBox="0 0 33.2812 29.7814"><defs><style>.cls-1{isolation:isolate;}.cls-2{fill:#f0b84a;fill-rule:evenodd;}</style></defs><title>icon_tag</title><g class="cls-1"><g><path class="cls-2" d="M32,10a35.9769,35.9769,0,0,0-8,1L9,27l9,7S34.66,20.61,35,17,35.1641,10.1624,32,10Z" transform="translate(-2.3828 -4.2188)"/></g></g><g><path d="M32.957,4.2188a2.7009,2.7009,0,0,1,2.7071,2.6894v6.3106a5.2053,5.2053,0,0,1-.4395,1.9775,5.2448,5.2448,0,0,1-1.1074,1.7314L20.459,30.5684a2.481,2.481,0,0,1-.8613.5888,2.761,2.761,0,0,1-2.0743,0,2.6647,2.6647,0,0,1-.8789-.5888L15.291,29.2148,12.9,30.6035a2.467,2.467,0,0,1-.6416.2637,2.7845,2.7845,0,0,1-.6943.0879q-.1758,0-.3516-.0176a1.8718,1.8718,0,0,1-.3516-.07,2.6628,2.6628,0,0,1-.9492-.4658,2.8952,2.8952,0,0,1-.7031-.7823L2.74,18.4043a2.8141,2.8141,0,0,1-.334-1.002,2.6806,2.6806,0,0,1,.07-1.0546,2.77,2.77,0,0,1,.4658-.9405,2.6017,2.6017,0,0,1,.7822-.6943L18.1035,6.416a.8814.8814,0,0,1,.6944-.0967.8243.8243,0,0,1,.5361.4307.8335.8335,0,0,1,.0967.6768A.8851.8851,0,0,1,19,7.9805L4.6387,16.2773a.8242.8242,0,0,0-.4307.5362.8811.8811,0,0,0,.0967.6943l6.4687,11.1973a.929.929,0,0,0,.2286.2724.7184.7184,0,0,0,.3164.1495.7977.7977,0,0,0,.3515.0263.9834.9834,0,0,0,.334-.1142l1.9688-1.1426L9.2969,23.2207a2.6665,2.6665,0,0,1-.5889-.8789,2.7395,2.7395,0,0,1,0-2.0654,2.4634,2.4634,0,0,1,.5889-.87L22.9551,5.748a5.8559,5.8559,0,0,1,3.709-1.5292Zm.8965,9V6.9082a.9.9,0,0,0-.8965-.8965H26.6641a3.4566,3.4566,0,0,0-1.3008.3076,3.708,3.708,0,0,0-1.1426.6944L10.5625,20.6719a.8994.8994,0,0,0-.1934.29.8767.8767,0,0,0-.07.3428.8569.8569,0,0,0,.07.3515,1.1856,1.1856,0,0,0,.1934.2989l7.3652,7.3476a.927.927,0,0,0,.2813.1934.8556.8556,0,0,0,.3515.07.8749.8749,0,0,0,.3428-.07.8993.8993,0,0,0,.29-.1934L32.8516,15.6445a3.4549,3.4549,0,0,0,.6943-1.1338A3.49,3.49,0,0,0,33.8535,13.2188Zm-4.5,0a2.7008,2.7008,0,0,0,2.707-2.7071,2.6982,2.6982,0,1,0-4.6054,1.916A2.5888,2.5888,0,0,0,29.3535,13.2188Zm0-3.6036a.9.9,0,1,1-.6328.2637A.863.863,0,0,1,29.3535,9.6152Z" transform="translate(-2.3828 -4.2188)"/></g></svg>