<svg id="Layer_1" data-name="Layer 1" xmlns="http://www.w3.org/2000/svg" xmlns:xlink="http://www.w3.org/1999/xlink" width="577.6951" height="163.3077" viewBox="0 0 577.6951 163.3077"><defs><style>.cls-1{fill:none;}.cls-2{fill:#666;}.cls-3{fill:#222;}.cls-4{fill:#279145;}.cls-5{fill:#f15531;}.cls-6{fill:#fab629;}.cls-7{fill:#243642;}.cls-8{clip-path:url(#clip-path);}</style><clipPath id="clip-path" transform="translate(-0.1049 -0.693)"><rect class="cls-1" x="0.1047" y="0.6931" width="129.3306" height="163.3069"/></clipPath></defs><title>farmart_logo_svg</title><g id="grocery"><path class="cls-2" d="M231.6,143.4h10.7v15.3a47.0339,47.0339,0,0,1-5.1,1.2,35.4088,35.4088,0,0,1-6,.4c-4.8,0-8.5-1.4-11.1-4.3-2.7-2.8-4-6.8-4-11.9a18.1956,18.1956,0,0,1,2-8.6,13.6226,13.6226,0,0,1,5.7-5.7,18.609,18.609,0,0,1,8.7-2,22.5738,22.5738,0,0,1,9.4,1.9l-1.4,3.2a20.9835,20.9835,0,0,0-8.2-1.8c-3.8,0-6.8,1.1-9,3.4s-3.2,5.5-3.2,9.5c0,4.3,1,7.5,3.1,9.7s5.1,3.3,9.2,3.3a27.3623,27.3623,0,0,0,6.4-.8v-9.7h-7.1v-3.1Z" transform="translate(-0.1049 -0.693)"/><path class="cls-2" d="M256.9,146.9V160h-3.7V128.5h8.6c3.9,0,6.7.7,8.6,2.2a8.2336,8.2336,0,0,1,2.8,6.7c0,4.2-2.1,7-6.3,8.5l8.6,14.2h-4.3L263.6,147h-6.7Zm0-3.2h5q3.9,0,5.7-1.5a5.7385,5.7385,0,0,0,1.8-4.6q0-3.15-1.8-4.5c-1.2-.9-3.2-1.4-5.9-1.4h-4.8v12Z" transform="translate(-0.1049 -0.693)"/><path class="cls-2" d="M311.2,144.2c0,5-1.3,9-3.8,11.9-2.6,2.9-6.1,4.3-10.6,4.3-4.6,0-8.2-1.4-10.8-4.3-2.5-2.8-3.8-6.8-3.8-12,0-5.1,1.3-9.1,3.8-11.9s6.1-4.2,10.8-4.2c4.5,0,8.1,1.4,10.6,4.3S311.2,139.1,311.2,144.2Zm-25.1,0c0,4.3.9,7.5,2.7,9.7s4.5,3.3,7.9,3.3c3.5,0,6.1-1.1,7.9-3.3s2.7-5.4,2.7-9.7c0-4.2-.9-7.5-2.7-9.7s-4.4-3.3-7.9-3.3-6.2,1.1-8,3.3C287,136.7,286.1,139.9,286.1,144.2Z" transform="translate(-0.1049 -0.693)"/><path class="cls-2" d="M335,131.3a10.2911,10.2911,0,0,0-8.2,3.5c-2,2.3-3,5.5-3,9.5,0,4.1,1,7.3,2.9,9.6s4.7,3.4,8.3,3.4a27.655,27.655,0,0,0,7.5-1.2v3.2a23.8556,23.8556,0,0,1-8.1,1.2q-6.9,0-10.8-4.2c-2.5-2.8-3.8-6.8-3.8-12a18.9951,18.9951,0,0,1,1.8-8.5,13.8631,13.8631,0,0,1,5.3-5.7,15.2289,15.2289,0,0,1,8.1-2,19.8863,19.8863,0,0,1,8.7,1.8l-1.6,3.1A15.1443,15.1443,0,0,0,335,131.3Z" transform="translate(-0.1049 -0.693)"/><path class="cls-2" d="M370.3,160H352.7V128.5h17.6v3.3H356.4V142h13.1v3.2H356.4v11.6h13.9Z" transform="translate(-0.1049 -0.693)"/><path class="cls-2" d="M384.3,146.9V160h-3.7V128.5h8.6c3.9,0,6.7.7,8.6,2.2a8.2336,8.2336,0,0,1,2.8,6.7c0,4.2-2.1,7-6.3,8.5l8.6,14.2h-4.3L391,147h-6.7Zm0-3.2h5q3.9,0,5.7-1.5a5.7385,5.7385,0,0,0,1.8-4.6q0-3.15-1.8-4.5c-1.2-.9-3.2-1.4-5.9-1.4h-4.8v12Z" transform="translate(-0.1049 -0.693)"/><path class="cls-2" d="M419.2,144.2l8.4-15.8h4l-10.5,19.3V160h-3.7V147.9l-10.5-19.5h4Z" transform="translate(-0.1049 -0.693)"/></g><g id="Farmart"><path d="M253.7,55.1H232.4V88.3H217.3v-67a7.9878,7.9878,0,0,1,7.7-8.1h46.6v13H232.4V42.3h29.4v5A8.0048,8.0048,0,0,1,253.7,55.1Z" transform="translate(-0.1049 -0.693)"/><path d="M293.4,48.9H278.7c1.8-10.8,9.4-16.1,22.9-16.1,16.1,0,24.3,5.3,24.6,16.1V68.8c0,16.1-9.7,23.3-25.5,24.4-14,1.1-23.7-5.4-23.7-18.3.3-14,10.5-17.8,25.3-19.2,6.3-.8,9.5-2.6,9.5-5.9-.3-3.3-3.4-5-9.5-5C297,44.8,294.1,46.1,293.4,48.9Zm18.5,19.2V62.7a59.7459,59.7459,0,0,1-11.7,3.5c-5.9,1.1-8.8,3.9-8.8,8.2.3,4.6,2.8,6.8,7.4,6.8C306.9,81.2,311.9,76.4,311.9,68.1Z" transform="translate(-0.1049 -0.693)"/><path d="M333.2,58.2c.4-18.9,10.5-28.3,30-28.3h2.1V45.1h-5c-8.2,0-12.3,4.3-12.3,12.8V88.3H333.1V58.2Z" transform="translate(-0.1049 -0.693)"/><path d="M385.8,53.5V88.3H371.9v-32c0-15.6,7.8-23.3,23.4-23.3,7,0,12.4,1.5,16.3,4.6,3.9-3,9.3-4.4,16.3-4.4,15.6,0,23.3,7.7,23.2,23.3V88.6H444c-4.5-.3-6.8-2.5-6.8-6.8v-28c-.3-5.7-3.4-8.5-9.5-8.5s-9.2,2.8-9.3,8.5V88.4H404.6V53.5c-.3-5.7-3.4-8.5-9.5-8.5S386,47.9,385.8,53.5Z" transform="translate(-0.1049 -0.693)"/><path class="cls-3" d="M474.4,48.9H459.7c1.8-10.8,9.4-16.1,22.9-16.1,16.1,0,24.3,5.3,24.6,16.1V68.8c0,16.1-9.7,23.3-25.5,24.4-14,1.1-23.7-5.4-23.7-18.3.3-14,10.5-17.8,25.3-19.2,6.3-.8,9.5-2.6,9.5-5.9-.3-3.3-3.4-5-9.5-5C478,44.8,475.2,46.1,474.4,48.9ZM493,68.1V62.7a59.7459,59.7459,0,0,1-11.7,3.5c-5.9,1.1-8.8,3.9-8.8,8.2.3,4.6,2.8,6.8,7.4,6.8C488,81.2,493,76.4,493,68.1Z" transform="translate(-0.1049 -0.693)"/><path class="cls-3" d="M514.3,58.2c.4-18.9,10.5-28.3,30-28.3h2.1V45.1h-5c-8.2,0-12.3,4.3-12.3,12.8V88.3H514.2V58.2Z" transform="translate(-0.1049 -0.693)"/><path class="cls-3" d="M570.6,40.4H569V72.8c0,2.4,1.4,3.8,4.3,3.8h4.5V87.8a89.5611,89.5611,0,0,1-15.5-.1c-5.5-.6-8.2-4-8.1-10.5V13.3h7.6a7.3911,7.3911,0,0,1,7.1,7.4V30h8.8v3.2A6.8511,6.8511,0,0,1,570.6,40.4Z" transform="translate(-0.1049 -0.693)"/></g><g id="Layer_2" data-name="Layer 2"><path class="cls-4" d="M21.3333,52.6667s-1-5.8334,0-7.8334A11.2342,11.2342,0,0,1,23,42.1667s-2.8333-8.8334,0-12.3334,9-5,9-5S32.3333,18.5,34.6667,16a19.3847,19.3847,0,0,1,6.5-4S43.3333,5.6667,46.5,5.1667,54.3333,6.5,54.3333,6.5s4.3334-3.0061,7-1.42,5,6.92,5,6.92,5,.8333,7.3334,3.3333a20.7923,20.7923,0,0,1,3.6666,6.8334s5.5,2,7.1667,5.1666S86.5,39.5,86.5,39.5L83.0833,47s-5.3333-5.1667-8-6.25-4.25-2.75-3.75-5.25,3.5-6,1.25-7.5a7.5132,7.5132,0,0,0-5.25-1.0833C66.6667,27,51,30.8333,51,30.8333S47.5833,32.0833,48.6667,35s4.6389,3.6667,5.0277,4.75,1.0278,3.1667,0,4.5833S48.25,49.7751,47.75,53.5542a51.9047,51.9047,0,0,0,.1667,9.7791h-2s-7.75-12.8333-12-12.6666-11.8334,4.75-11.8334,4.75Z" transform="translate(-0.1049 -0.693)"/></g><g id="Layer_3" data-name="Layer 3"><path class="cls-5" d="M78.75,60.6667,71.8333,81s-6.5-4.5833-10.6666-4.25-9.8334,3.75-9.8334,3.75a11.4394,11.4394,0,0,0,0-6.5c-1.0833-3.25-.75-4.5-.75-4.5s6.8334,1.6667,9.9167.1667S70.9167,63.8333,72.9167,63,78.75,60.6667,78.75,60.6667Z" transform="translate(-0.1049 -0.693)"/></g><g id="Layer_4" data-name="Layer 4"><path class="cls-6" d="M3.3333,76.5S12.6667,83.3333,17.75,82s9.8333-6,14-5.5,8.8333,6.9431,13.9167,5.8465,10.1666-6.0878,14.6666-5.8838S69.5,83.1931,74.25,82.3465,83.3333,76.75,89.1667,77s8.5,5.25,14.0833,4.5833,15.0833-5.8333,16-5.75,1.3333,1.5,1.3333,1.5l-1.75,25.75-2.9166,41.3189s.25,9.3478-3.3334,12.5145-7.5833,4.5-9.6666,4.5833-83.25,0-83.25,0S13.5,160,11,156.4167s-3.4167-6-3.6667-8.4167-2.9166-46.75-2.9166-46.75L2.8333,79.0833Z" transform="translate(-0.1049 -0.693)"/></g><g id="Icon"><path class="cls-7" d="M87.3627,73.4276a2.8769,2.8769,0,0,0,3.6456-1.799,5.0677,5.0677,0,0,1,6.4133-3.1616,10.8219,10.8219,0,0,0,13.7044-6.76,2.8735,2.8735,0,1,0-5.4418-1.8482,5.0639,5.0639,0,0,1-6.4162,3.1616,10.8339,10.8339,0,0,0-13.7015,6.76,2.8776,2.8776,0,0,0,1.7962,3.6471Z" transform="translate(-0.1049 -0.693)"/><path class="cls-7" d="M94.163,53.4013a2.8724,2.8724,0,0,0,3.6456-1.7991,5.05,5.05,0,0,1,6.4133-3.16,10.8249,10.8249,0,0,0,13.7044-6.7627,2.8735,2.8735,0,1,0-5.4418-1.848,5.0566,5.0566,0,0,1-6.4132,3.1645A10.8039,10.8039,0,0,0,92.3668,49.754a2.8735,2.8735,0,0,0,1.7962,3.6473Z" transform="translate(-0.1049 -0.693)"/><g class="cls-8"><path class="cls-7" d="M100.9576,33.3762a2.8813,2.8813,0,0,0,3.6488-1.799,3.7392,3.7392,0,0,1,4.7346-2.3365,9.48,9.48,0,0,0,12.032-5.929,2.875,2.875,0,1,0-5.445-1.8481,3.7263,3.7263,0,0,1-4.7374,2.3309,9.507,9.507,0,0,0-12.0291,5.9319,2.8788,2.8788,0,0,0,1.7961,3.65Z" transform="translate(-0.1049 -0.693)"/><path class="cls-7" d="M102.044,158.2529H21.3669a10.639,10.639,0,0,1-10.62-10.1431L5.9658,80.1636l2.4993,1.5a16.8662,16.8662,0,0,0,8.7888,2.408,16.8564,16.8564,0,0,0,8.7889-2.408l.9977-.5978a8.8133,8.8133,0,0,1,9.17,0l2.0488,1.231a14.7881,14.7881,0,0,0,8.4325,2.064c.2581-.0112.5164-.0112.7788-.0364.0308-.0029.06-.02.094-.0224a14.8114,14.8114,0,0,0,5.6651-1.85,2.65,2.65,0,0,0,.4995-.1557l2.05-1.231a8.8133,8.8133,0,0,1,9.1705,0l2.0474,1.231a14.8642,14.8642,0,0,0,7.0306,2.0781c.0506.0029.1011.0083.1489.0083a14.7447,14.7447,0,0,0,2.5118-.1178c.477-.0617.94-.1825,1.4087-.2877.2273-.0546.4547-.1038.6794-.17a14.7219,14.7219,0,0,0,3.6905-1.514l2.0489-1.2306a8.8094,8.8094,0,0,1,9.1693,0l2.0488,1.2306a14.8339,14.8339,0,0,0,7.7011,2.1092c.0422,0,.0871.0083.1318.0083a14.831,14.831,0,0,0,7.48-2.0235l5.6383-2.505a3.1045,3.1045,0,0,0,.32-.2274l.4405-.1951-4.7851,68.7056a10.63,10.63,0,0,1-10.6172,10.087ZM6.6085,68.2171c1.2167-2.29,4.1678-4.0384,9.2926-5.5036a15.5147,15.5147,0,0,0,6.4257-3.6878c.8182-.7845,1.5858-1.4482,2.3281-2.0517,2.3153-1.8818,4.3137-2.9048,6.1211-3.1378.0408-.0055.08-.0126.1207-.0153a5.8712,5.8712,0,0,1,1.6643.0489c.14.0267.2835.0745.4279.1124a5.9848,5.9848,0,0,1,.7988.2385c.1724.0661.3452.167.52.2472a8.0722,8.0722,0,0,1,.7467.383c.1963.1179.3914.2693.5865.4041.2329.1641.4659.3145.7016.5039.219.1752.4365.3871.6555.5866.2187.1977.4362.3787.6553.6006.2413.244.4854.5276.73.8013.1979.2215.3973.425.5978.6635.2736.3285.5487.7018.8251,1.0638.1754.23.3481.4365.5235.6807.3129.4363.6287.9232.9443,1.406.1391.2118.2794.4014.417.62q.6858,1.0821,1.3792,2.3057c2.1163,3.7328,2.8165,9.2478,1.8975,14.05-.153-.014-.3018-.0365-.4547-.06a8.9363,8.9363,0,0,1-3.1082-1.1117l-2.05-1.2306a14.8224,14.8224,0,0,0-7.638-2.12c-.0326,0-.0632.0057-.0983.0057a14.7932,14.7932,0,0,0-7.7364,2.1147l-.9977.5978A11.1552,11.1552,0,0,1,17.2482,78.32a11.1,11.1,0,0,1-5.6356-1.5873L7.7466,74.41l-.0029-.0027a4.9255,4.9255,0,0,0-1.6208-.612,8.2637,8.2637,0,0,1,.4856-5.5781Zm18.466-23.8629,1.8817-1.5519-1.2207-2.1064A8.6406,8.6406,0,0,1,32.8683,27.72l3.4886-.1459-.8124-3.3974a7.0366,7.0366,0,0,1-.2078-1.66,7.1548,7.1548,0,0,1,6.5817-7.1021l2.6549-.2v-2.86a4.8279,4.8279,0,0,1,4.82-4.6618,4.7365,4.7365,0,0,1,3.2093,1.2589L54.618,10.769l1.9311-1.9084a4.0743,4.0743,0,0,1,3.3538-1.1381,4.1474,4.1474,0,0,1,3.38,2.9258,3.7589,3.7589,0,0,1,.1348,1.5269l-.3354,3.2093h3.2361a7.9155,7.9155,0,0,1,7.87,7.3491l.129,1.8889,1.7851.6257a10.9569,10.9569,0,0,1,7.3449,10.5853,10.3849,10.3849,0,0,1-1.8862,5.7042,30.4249,30.4249,0,0,0-5.7366-3.65c-.4518-.2385-.887-.4689-1.3275-.7128a.6328.6328,0,0,1-.3256-.4911,1.6424,1.6424,0,0,1,.4015-1.2758,6.1784,6.1784,0,0,0,1.35-5.3088l-.348-1.5827a6.1265,6.1265,0,0,0-7.2916-4.6759l-.7691.1685c-.0083.0041-.0167,0-.0252.0041l-8.4366,1.844-8.23,1.7963a6.1346,6.1346,0,0,0-4.6756,7.2944l.1725.7814v.0086a.0547.0547,0,0,1,.0028.0127l.1684.7788a6.1135,6.1135,0,0,0,3.556,4.3009,1.7487,1.7487,0,0,1,.9513.9291c.0744.2119.031.3214-.136.5978V42.36c-.2836.3817-.5909.77-.9052,1.1689-.3157.4026-.6427.8251-.9766,1.2631-.1124.1457-.219.2988-.3311.4474-.2386.3242-.4773.6553-.713,1.0008-.1291.1865-.2527.3787-.3789.5739-.2175.3368-.4279.6845-.6342,1.0411-.1207.2063-.2385.411-.3538.6257-.2161.403-.411.8254-.6033,1.2563-.0842.1836-.1726.3592-.2471.5515a16.02,16.02,0,0,0-.6567,1.9715c-.0279.11-.0393.2273-.0644.34a15.4428,15.4428,0,0,0-.3228,1.8243c-.0281.2541-.0338.5179-.052.7789-.0224.34-.066.6624-.066,1.0145l-.0337-.042c-.0405-.052-.0813-.0983-.1178-.15-.501-.6581-1-1.2641-1.5043-1.84-.1572-.181-.3187-.3549-.48-.5276-.4224-.4576-.8448-.8855-1.27-1.2881-.1377-.1294-.2752-.27-.4168-.3957a19.7725,19.7725,0,0,0-1.6209-1.3108c-.1515-.11-.3073-.2021-.459-.3044-.4084-.2739-.8168-.5262-1.2307-.7509-.2-.11-.4-.2161-.6035-.313a12.1681,12.1681,0,0,0-1.2938-.543c-.1431-.052-.2876-.1207-.4307-.1669a11.6845,11.6845,0,0,0-1.423-.3593c-.0546-.0112-.1094-.0057-.1627-.0141-.0983-.0183-.1936-.0546-.2906-.0686-.334-.0492-.65-.03-.978-.0521-.2287-.0154-.456-.0632-.6863-.0632-.0686,0-.14.017-.2132.017a11.4586,11.4586,0,0,0-1.3093.1123c-.2161.0279-.4323.0463-.6469.0855a13.5106,13.5106,0,0,0-1.6587.4195c-.0828.0267-.1642.0463-.247.0745a18.0457,18.0457,0,0,0-4.0583,2.004,5.4852,5.4852,0,0,1-.4-2.0572,5.5956,5.5956,0,0,1,2.0531-4.3293ZM52.8443,33.1,61.28,31.2543l7.4585-1.6321a1.2486,1.2486,0,0,1,.2244-.0223,1.21,1.21,0,0,1,1.17.9331,1.2021,1.2021,0,0,1-.9065,1.4146L53.3509,35.4222A1.1886,1.1886,0,0,1,52.8443,33.1Zm20.912,32.5861c-.2638.7492-.5277,1.4972-.7832,2.2494-.1822.54-.3817,1.072-.5584,1.6152q-1.2675,3.8372-2.4,7.7363l-1.9111-1.1438a14.845,14.845,0,0,0-7.64-2.12c-.035,0-.0715.0054-.1066.0054-.3046-.0054-.6064.0283-.9079.0463-.219.0141-.4394.02-.6581.0422A14.7659,14.7659,0,0,0,54.21,75.3333l-.5486-2.5147c.8279.0687,1.653.1377,2.4261.1377,5.0114,0,9.0472-1.4919,13.6863-4.7909a35.0537,35.0537,0,0,1,3.9828-2.48Zm-7.314-2.2047C61.7046,66.8463,58.18,67.74,52.3686,66.898l-1.7442-7.9873c-1.1844-5.4,1.3806-8.67,3.8618-11.8341.3368-.4307.6639-.85.974-1.2587a.0147.0147,0,0,1,.0054-.0112,7.2212,7.2212,0,0,0,.5923-.9292,6.1551,6.1551,0,0,0,.5458-4.2856L68.6,37.9691a6.7409,6.7409,0,0,0,.3032,1.0723,6.4586,6.4586,0,0,0,2.8346,3.1757c.4379.2412.8955.4825,1.3642.7322.39.2036.7775.4171,1.1675.6289.1879.101.3761.2019.5641.3043.3422.1938.6737.4059,1.0048.6162.2862.1754.567.3564.842.5487.32.2219.623.4659.9289.713.2666.2175.5221.4561.7774.7.2722.2682.5417.54.7914.8391a9.8569,9.8569,0,0,1,1.2153,1.7359c-1.2182,2.69-2.3631,5.435-3.4745,8.2023-.1712.4293-.3563.8464-.5248,1.2743a29.31,29.31,0,0,0-9.9522,4.969ZM91.1235,40.2593c1.1367-2.1247,2.38-4.7572,3.6935-7.547,4.3192-9.1733,10.2384-21.7356,17.0863-25.27,2.5007-1.2882,4.6535-1.3135,6.5843-.11,3.3315,2.0923,5.2933,7.3715,5.1979,11.0678a196.9056,196.9056,0,0,1-9.228,53.15c-.188.6021-.6007,1.8143-1.19,3.4786L108.37,77.204a2.75,2.75,0,0,0-.3115.1641,8.8262,8.8262,0,0,1-9.1692,0L96.84,76.1375a14.83,14.83,0,0,0-7.6394-2.12c-.0309,0-.0645.0057-.0984.0057a14.8005,14.8005,0,0,0-7.7375,2.1147l-2.0463,1.2306a9.0167,9.0167,0,0,1-3.6767,1.16c.07-.25.1546-.494.23-.7409.786-2.676,1.6307-5.3142,2.5176-7.9327.3339-.9935.6847-1.983,1.0354-2.9682q1.1075-3.1173,2.3127-6.1675c.3538-.912.7018-1.8313,1.0722-2.7334a190.9268,190.9268,0,0,1,8.3132-17.7266Zm27.2632,108.2518,5.0125-71.9274c0-.0183.0057-.035.0057-.0519a3.7186,3.7186,0,0,0-3.2668-3.9292,202.2839,202.2839,0,0,0,9.2926-54.0536c.14-5.4463-2.52-12.7168-7.8867-16.0818-2.5765-1.618-6.7945-2.9525-12.2732-.1334-8.5824,4.4288-14.7233,17.457-19.6546,27.93-.2834.6031-.5612,1.1926-.839,1.7763A16.6357,16.6357,0,0,0,79.67,20.5094,13.7053,13.7053,0,0,0,69.0131,9.9131a8.2905,8.2905,0,0,0-.2191-.8883,9.9086,9.9086,0,0,0-8.2148-7.0122A9.7727,9.7727,0,0,0,54.472,3.2684a10.4274,10.4274,0,0,0-5.0811-1.3246,10.5878,10.5878,0,0,0-10.2919,8.15,12.95,12.95,0,0,0-9.5127,12.3322,14.3928,14.3928,0,0,0-9.8008,19.1353A11.3054,11.3054,0,0,0,18.2081,53.178c-2.8712-3.1334-6.9112-5.693-11.4495-5.5274a2.8746,2.8746,0,0,0,.0857,5.7479c.0981.0028.1866-.0057.2792-.0057,2.6929,0,5.1964,1.7821,7.0179,3.8522C9.5834,58.5569,4.0882,60.6955,1.5244,65.53-.0178,68.4474-.1988,72.0243.83,76.1234a4.987,4.987,0,0,0-.7185,2.8248l4.8919,69.5123a16.3677,16.3677,0,0,0,16.3259,15.54h80.7317a16.36,16.36,0,0,0,16.326-15.49Z" transform="translate(-0.1049 -0.693)"/></g><path class="cls-7" d="M17.3522,124.2845H37.47a2.874,2.874,0,1,0,0-5.7479H17.3522a2.874,2.874,0,1,0,0,5.7479Z" transform="translate(-0.1049 -0.693)"/><path class="cls-7" d="M17.3522,135.78H43.2176a2.874,2.874,0,1,0,0-5.7479H17.3522a2.874,2.874,0,1,0,0,5.7479Z" transform="translate(-0.1049 -0.693)"/><path class="cls-7" d="M48.9655,141.5282H17.3522a2.874,2.874,0,1,0,0,5.7479H48.9655a2.874,2.874,0,1,0,0-5.7479Z" transform="translate(-0.1049 -0.693)"/><path class="cls-7" d="M66.2093,141.5282h-5.748a2.874,2.874,0,0,0,0,5.7479h5.748a2.874,2.874,0,0,0,0-5.7479Z" transform="translate(-0.1049 -0.693)"/></g></svg>